# xmcd
# Copyright (c) 1998 CDDB Inc.
#
# Track frame offsets:
#	150
#	12448
#	29936
#	46849
#	62233
#	78207
#	94558
#	105713
#	119065
#	139627
#	159663
#	173415
#	189593
#	203166
#	217110
#	232669
#	246910
#	257912
#	273535
#	285880
#
# Disc length: 4019 seconds
#
# Revision: 1
# Processed by: cddbd v1.4PL0 Copyright (c) Steve Scherf et al.
# Submitted via: audiograbber 1.60
#
DISCID=1c0fb114
DTITLE=Ole Ivars - Gull 2
DYEAR=1900
DGENRE=
TTITLE0=Regnets Rytme
TTITLE1=Et Bedre Liv
TTITLE2=Sola Mi Er Sola Di
TTITLE3=Kongen Av Campingplassen
TTITLE4=Har Du Plass Tel Meg I Hjertet Ditt I Dag
TTITLE5=En Får Væra Som En Er
TTITLE6=Full Fart I Orlando
TTITLE7=Det Var Digert
TTITLE8=Mitt Beste Sommarsminne
TTITLE9=Hundrelappen
TTITLE10=Du Skal Få Din Siste Sjangse
TTITLE11=Ung Og Grønn
TTITLE12=Line
TTITLE13=Farlige Ord
TTITLE14=Har Jeg Sagt Deg Alt Jeg Ville Si Deg
TTITLE15=Kjerringa Mi Kan Itte Spelle Trekkspell
TTITLE16=Alle Kjæm Tel Lørda'n
TTITLE17=Man Måste Vara Två
TTITLE18=Kjærlighetsgudinna
TTITLE19=Nei Så Tjukk Du Har Blitt   2004-
EXTD=
EXTT0=
EXTT1=
EXTT2=
EXTT3=
EXTT4=
EXTT5=
EXTT6=
EXTT7=
EXTT8=
EXTT9=
EXTT10=
EXTT11=
EXTT12=
EXTT13=
EXTT14=
EXTT15=
EXTT16=
EXTT17=
EXTT18=
EXTT19=
PLAYORDER=
